<?xml version="1.0" encoding="UTF-8"?>
<svg width="17px" height="16px" viewBox="0 0 17 16" version="1.1" xmlns="http://www.w3.org/2000/svg" xmlns:xlink="http://www.w3.org/1999/xlink">
    <title>Three-Fourths</title>
    <g id="Page-1" stroke="none" stroke-width="1" fill="none" fill-rule="evenodd">
        <g id="stars" transform="translate(-58.000000, 0.000000)" fill-rule="nonzero">
            <g id="Three-Fourths" transform="translate(66.500000, 8.000000) scale(-1, 1) translate(-66.500000, -8.000000) translate(58.000000, 0.000000)">
                <g id="Group" transform="translate(0.005882, 0.000000)">
                    <path d="M7.93529412,0 L10.2691473,4.76393202 L15.4878017,5.52786405 L11.7115479,9.23606798 L12.6030005,14.472136 L7.93529412,12 L3.2675877,14.472136 L4.1590403,9.23606798 L0.382786488,5.52786405 L5.60144091,4.76393202 L7.93529412,0 Z M6.25849771,5.6481781 L2.46885538,6.20542908 L5.17236185,8.93463135 L4.5626691,12.6907043 L6.25849771,11.8238525 L6.25849771,5.6481781 Z" id="Combined-Shape" fill="#FDD448"></path>
                    <g id="Atom-/-star-/-empty-" stroke="#DBA437" stroke-width="0.975">
                        <path d="M7.94117647,1.10809741 L5.93210008,5.20908513 L1.43083302,5.8680025 L4.6882667,9.06673568 L3.92022248,13.5779478 L7.94117647,11.4483483 L11.9621305,13.5779478 L11.1940862,9.06673568 L14.4515199,5.8680025 L9.95025286,5.20908513 L7.94117647,1.10809741 Z" id="Star-"></path>
                    </g>
                </g>
            </g>
        </g>
    </g>
</svg>