<?xml version="1.0" encoding="UTF-8"?>
<svg width="17px" height="16px" viewBox="0 0 17 16" version="1.1" xmlns="http://www.w3.org/2000/svg" xmlns:xlink="http://www.w3.org/1999/xlink">
    <title>One-Third</title>
    <g id="Page-1" stroke="none" stroke-width="1" fill="none" fill-rule="evenodd">
        <g id="stars" transform="translate(-19.000000, 0.000000)" fill-rule="nonzero">
            <g id="One-Third" transform="translate(27.500000, 8.000000) scale(-1, 1) translate(-27.500000, -8.000000) translate(19.000000, 0.000000)">
                <g id="Group" transform="translate(0.005882, 0.000000)">
                    <path d="M7.93529412,0 L10.2691473,4.76393202 L15.4878017,5.52786405 L11.7115479,9.23606798 L12.6030005,14.472136 L8.75578649,12.435 L8.76206794,12.4248096 L8.29378649,12.191 L8.17378649,12.127 L9.61976749,11.9008179 L9.61976749,5.65062378 L9.20222599,4.79651306 L7.93529412,2.23 L6.25849771,5.65062378 L2.46885538,6.20787476 L5.17236185,8.93707703 L4.5626691,12.69315 L7.33378649,12.258 L6.78602726,12.5222621 L6.86778649,12.565 L3.2675877,14.472136 L4.1590403,9.23606798 L0.382786488,5.52786405 L5.60144091,4.76393202 L7.93529412,0 Z" id="Combined-Shape" fill="#FDD448"></path>
                    <g id="Atom-/-star-/-empty-" stroke="#DBA437" stroke-width="0.975">
                        <path d="M7.94117647,1.10809741 L5.93210008,5.20908513 L1.43083302,5.8680025 L4.6882667,9.06673568 L3.92022248,13.5779478 L7.94117647,11.4483483 L11.9621305,13.5779478 L11.1940862,9.06673568 L14.4515199,5.8680025 L9.95025286,5.20908513 L7.94117647,1.10809741 Z" id="Star-"></path>
                    </g>
                </g>
            </g>
        </g>
    </g>
</svg>